<svg width="151" height="13" viewBox="0 0 151 13" fill="none" xmlns="http://www.w3.org/2000/svg">
<path opacity="0.7" d="M1.12 9.14C0.998667 9.14 0.886667 9.09333 0.784 9C0.681333 8.916 0.63 8.81333 0.63 8.692V4.17C0.63 3.918 0.709333 3.72667 0.868 3.596C1.02667 3.46533 1.204 3.4 1.4 3.4H2.884C3.20133 3.4 3.49533 3.46533 3.766 3.596C4.046 3.71733 4.27 3.89933 4.438 4.142C4.606 4.38467 4.69 4.68333 4.69 5.038C4.69 5.58867 4.51267 6.02733 4.158 6.354C3.81267 6.68067 3.39267 6.844 2.898 6.844H1.96C1.72667 6.844 1.61 6.984 1.61 7.264V8.692C1.61 8.81333 1.55867 8.916 1.456 9C1.36267 9.09333 1.25067 9.14 1.12 9.14ZM1.89 6.004H2.744C2.97733 6.004 3.20133 5.934 3.416 5.794C3.64 5.654 3.752 5.41133 3.752 5.066C3.752 4.79533 3.64933 4.59467 3.444 4.464C3.248 4.324 3.03333 4.254 2.8 4.254H1.932C1.69867 4.254 1.582 4.366 1.582 4.59V5.626C1.582 5.878 1.68467 6.004 1.89 6.004ZM6.66148 9.14C6.25082 9.14 5.87748 9.04667 5.54148 8.86C5.21482 8.67333 4.95815 8.41667 4.77148 8.09C4.58482 7.754 4.49148 7.38067 4.49148 6.97C4.49148 6.56867 4.58482 6.20933 4.77148 5.892C4.95815 5.57467 5.21482 5.32733 5.54148 5.15C5.87748 4.96333 6.25082 4.87 6.66148 4.87C7.07215 4.87 7.44082 4.96333 7.76748 5.15C8.09415 5.32733 8.35082 5.57467 8.53748 5.892C8.73348 6.20933 8.83148 6.56867 8.83148 6.97C8.83148 7.38067 8.73348 7.754 8.53748 8.09C8.35082 8.41667 8.09415 8.67333 7.76748 8.86C7.44082 9.04667 7.07215 9.14 6.66148 9.14ZM6.66148 8.272C7.02548 8.272 7.31948 8.15533 7.54348 7.922C7.76748 7.67933 7.87948 7.362 7.87948 6.97C7.87948 6.59667 7.76748 6.298 7.54348 6.074C7.31948 5.85 7.02548 5.738 6.66148 5.738C6.28815 5.738 5.98948 5.85 5.76548 6.074C5.55082 6.298 5.44348 6.59667 5.44348 6.97C5.44348 7.362 5.55082 7.67933 5.76548 7.922C5.98948 8.15533 6.28815 8.272 6.66148 8.272ZM10.1033 9.14C9.7393 9.14 9.51063 8.96733 9.4173 8.622L8.5633 5.486C8.55396 5.458 8.5493 5.43 8.5493 5.402C8.5493 5.374 8.5493 5.35067 8.5493 5.332C8.5493 5.20133 8.5913 5.094 8.6753 5.01C8.76863 4.91667 8.8853 4.87 9.0253 4.87C9.12796 4.87 9.2213 4.898 9.3053 4.954C9.39863 5.00067 9.45463 5.07533 9.4733 5.178L9.9913 7.614C10.01 7.71667 10.052 7.768 10.1173 7.768C10.1826 7.768 10.2293 7.71667 10.2573 7.614L10.9853 5.458C11.032 5.32733 11.1113 5.234 11.2233 5.178C11.3353 5.11267 11.452 5.08 11.5733 5.08C11.6946 5.08 11.8066 5.11267 11.9093 5.178C12.0213 5.234 12.096 5.32733 12.1333 5.458L12.8613 7.614C12.8893 7.71667 12.936 7.768 13.0013 7.768C13.0666 7.768 13.1086 7.71667 13.1273 7.614L13.6453 5.178C13.664 5.07533 13.7153 5.00067 13.7993 4.954C13.8926 4.898 13.9906 4.87 14.0933 4.87C14.2333 4.87 14.3453 4.91667 14.4293 5.01C14.5226 5.094 14.5693 5.20133 14.5693 5.332C14.5693 5.35067 14.5693 5.374 14.5693 5.402C14.5693 5.43 14.5646 5.458 14.5553 5.486L13.7013 8.622C13.608 8.96733 13.3793 9.14 13.0153 9.14C12.8566 9.14 12.712 9.09333 12.5813 9C12.46 8.89733 12.376 8.77133 12.3293 8.622L11.6853 6.578C11.648 6.45667 11.606 6.396 11.5593 6.396C11.5033 6.396 11.4566 6.45667 11.4193 6.578L10.7893 8.622C10.7426 8.77133 10.654 8.89733 10.5233 9C10.402 9.09333 10.262 9.14 10.1033 9.14ZM16.658 9.14C15.958 9.14 15.412 8.93933 15.02 8.538C14.628 8.13667 14.432 7.59533 14.432 6.914C14.432 6.31667 14.628 5.82667 15.02 5.444C15.4214 5.06133 15.9347 4.87 16.56 4.87C17.1667 4.87 17.652 5.04733 18.016 5.402C18.38 5.74733 18.562 6.17667 18.562 6.69C18.562 6.89533 18.506 7.04933 18.394 7.152C18.2914 7.25467 18.156 7.306 17.988 7.306H15.552C15.4587 7.306 15.426 7.35733 15.454 7.46C15.5287 7.72133 15.678 7.92667 15.902 8.076C16.1354 8.216 16.3967 8.286 16.686 8.286C16.9007 8.286 17.106 8.258 17.302 8.202C17.5074 8.146 17.6847 8.062 17.834 7.95C17.8807 7.91267 17.9414 7.894 18.016 7.894C18.1187 7.894 18.212 7.94067 18.296 8.034C18.38 8.118 18.422 8.22067 18.422 8.342C18.422 8.398 18.4127 8.454 18.394 8.51C18.3754 8.566 18.3334 8.622 18.268 8.678C18.0254 8.85533 17.764 8.97667 17.484 9.042C17.2134 9.10733 16.938 9.14 16.658 9.14ZM17.47 6.578C17.526 6.578 17.554 6.55 17.554 6.494C17.554 6.27933 17.456 6.09267 17.26 5.934C17.0734 5.77533 16.84 5.696 16.56 5.696C16.3174 5.696 16.084 5.76133 15.86 5.892C15.6454 6.02267 15.5147 6.19533 15.468 6.41C15.468 6.41 15.468 6.41467 15.468 6.424C15.4587 6.46133 15.454 6.494 15.454 6.522C15.4634 6.55 15.5054 6.564 15.58 6.564L17.47 6.578ZM19.7935 6.928V8.706C19.7935 8.846 19.7422 8.95333 19.6395 9.028C19.5462 9.10267 19.4388 9.14 19.3175 9.14C19.1962 9.14 19.0842 9.10267 18.9815 9.028C18.8882 8.95333 18.8415 8.846 18.8415 8.706V5.416C18.8415 5.25733 18.8882 5.14067 18.9815 5.066C19.0842 4.982 19.1962 4.94 19.3175 4.94C19.4388 4.94 19.5462 4.982 19.6395 5.066C19.7422 5.14067 19.7935 5.25733 19.7935 5.416V5.472C19.9242 5.29467 20.0922 5.15 20.2975 5.038C20.5122 4.926 20.7362 4.87 20.9695 4.87C21.0815 4.87 21.1935 4.884 21.3055 4.912C21.4175 4.94 21.5015 4.996 21.5575 5.08C21.6135 5.164 21.6415 5.25733 21.6415 5.36C21.6415 5.48133 21.5995 5.59333 21.5155 5.696C21.4408 5.78933 21.3288 5.836 21.1795 5.836C21.1142 5.836 21.0442 5.82667 20.9695 5.808C20.9042 5.78933 20.8202 5.78 20.7175 5.78C20.4468 5.78 20.2228 5.88267 20.0455 6.088C19.8775 6.29333 19.7935 6.57333 19.7935 6.928ZM23.5224 9.14C22.8224 9.14 22.2764 8.93933 21.8844 8.538C21.4924 8.13667 21.2964 7.59533 21.2964 6.914C21.2964 6.31667 21.4924 5.82667 21.8844 5.444C22.2857 5.06133 22.7991 4.87 23.4244 4.87C24.0311 4.87 24.5164 5.04733 24.8804 5.402C25.2444 5.74733 25.4264 6.17667 25.4264 6.69C25.4264 6.89533 25.3704 7.04933 25.2584 7.152C25.1557 7.25467 25.0204 7.306 24.8524 7.306H22.4164C22.3231 7.306 22.2904 7.35733 22.3184 7.46C22.3931 7.72133 22.5424 7.92667 22.7664 8.076C22.9997 8.216 23.2611 8.286 23.5504 8.286C23.7651 8.286 23.9704 8.258 24.1664 8.202C24.3717 8.146 24.5491 8.062 24.6984 7.95C24.7451 7.91267 24.8057 7.894 24.8804 7.894C24.9831 7.894 25.0764 7.94067 25.1604 8.034C25.2444 8.118 25.2864 8.22067 25.2864 8.342C25.2864 8.398 25.2771 8.454 25.2584 8.51C25.2397 8.566 25.1977 8.622 25.1324 8.678C24.8897 8.85533 24.6284 8.97667 24.3484 9.042C24.0777 9.10733 23.8024 9.14 23.5224 9.14ZM24.3344 6.578C24.3904 6.578 24.4184 6.55 24.4184 6.494C24.4184 6.27933 24.3204 6.09267 24.1244 5.934C23.9377 5.77533 23.7044 5.696 23.4244 5.696C23.1817 5.696 22.9484 5.76133 22.7244 5.892C22.5097 6.02267 22.3791 6.19533 22.3324 6.41C22.3324 6.41 22.3324 6.41467 22.3324 6.424C22.3231 6.46133 22.3184 6.494 22.3184 6.522C22.3277 6.55 22.3697 6.564 22.4444 6.564L24.3344 6.578ZM27.6486 9.14C27.2472 9.14 26.8879 9.04667 26.5706 8.86C26.2532 8.67333 26.0059 8.41667 25.8286 8.09C25.6512 7.754 25.5626 7.38067 25.5626 6.97C25.5626 6.56867 25.6512 6.20933 25.8286 5.892C26.0059 5.57467 26.2532 5.32733 26.5706 5.15C26.8879 4.96333 27.2472 4.87 27.6486 4.87C27.9099 4.87 28.1432 4.912 28.3486 4.996C28.5539 5.08 28.7312 5.19667 28.8806 5.346V3.386C28.8806 3.22733 28.9272 3.11067 29.0206 3.036C29.1232 2.952 29.2352 2.91 29.3566 2.91C29.4779 2.91 29.5852 2.952 29.6786 3.036C29.7812 3.11067 29.8326 3.22733 29.8326 3.386V8.706C29.8326 8.846 29.7812 8.95333 29.6786 9.028C29.5852 9.10267 29.4779 9.14 29.3566 9.14C29.2352 9.14 29.1232 9.10267 29.0206 9.028C28.9272 8.95333 28.8806 8.846 28.8806 8.706V8.65C28.7312 8.79933 28.5539 8.916 28.3486 9C28.1432 9.09333 27.9099 9.14 27.6486 9.14ZM27.7326 8.272C28.0872 8.272 28.3672 8.15533 28.5726 7.922C28.7779 7.67933 28.8806 7.362 28.8806 6.97C28.8806 6.59667 28.7779 6.298 28.5726 6.074C28.3672 5.85 28.0872 5.738 27.7326 5.738C27.3686 5.738 27.0746 5.85 26.8506 6.074C26.6266 6.298 26.5146 6.59667 26.5146 6.97C26.5146 7.362 26.6266 7.67933 26.8506 7.922C27.0746 8.15533 27.3686 8.272 27.7326 8.272ZM34.7542 9.14C34.4929 9.14 34.2596 9.09333 34.0542 9C33.8489 8.916 33.6716 8.79933 33.5222 8.65V8.706C33.5222 8.846 33.4709 8.95333 33.3682 9.028C33.2749 9.10267 33.1676 9.14 33.0462 9.14C32.9249 9.14 32.8129 9.10267 32.7102 9.028C32.6169 8.95333 32.5702 8.846 32.5702 8.706V3.386C32.5702 3.22733 32.6169 3.11067 32.7102 3.036C32.8129 2.952 32.9249 2.91 33.0462 2.91C33.1676 2.91 33.2749 2.952 33.3682 3.036C33.4709 3.11067 33.5222 3.22733 33.5222 3.386V5.346C33.6716 5.19667 33.8489 5.08 34.0542 4.996C34.2596 4.912 34.4929 4.87 34.7542 4.87C35.1649 4.87 35.5242 4.96333 35.8322 5.15C36.1496 5.32733 36.3969 5.57467 36.5742 5.892C36.7516 6.20933 36.8402 6.56867 36.8402 6.97C36.8402 7.38067 36.7516 7.754 36.5742 8.09C36.3969 8.41667 36.1496 8.67333 35.8322 8.86C35.5242 9.04667 35.1649 9.14 34.7542 9.14ZM34.6702 8.272C35.0342 8.272 35.3282 8.15533 35.5522 7.922C35.7762 7.67933 35.8882 7.362 35.8882 6.97C35.8882 6.59667 35.7762 6.298 35.5522 6.074C35.3282 5.85 35.0342 5.738 34.6702 5.738C34.3156 5.738 34.0356 5.85 33.8302 6.074C33.6249 6.298 33.5222 6.59667 33.5222 6.97C33.5222 7.362 33.6249 7.67933 33.8302 7.922C34.0356 8.15533 34.3156 8.272 34.6702 8.272ZM36.7035 5.346C36.7035 5.19667 36.7548 5.08 36.8575 4.996C36.9602 4.912 37.0722 4.87 37.1935 4.87C37.3895 4.87 37.5295 4.968 37.6135 5.164L38.7055 7.838C38.7335 7.91267 38.7848 7.95 38.8595 7.95C38.9342 7.95 38.9855 7.91733 39.0135 7.852L39.9515 5.178C40.0262 4.97267 40.1708 4.87 40.3855 4.87C40.5162 4.87 40.6328 4.912 40.7355 4.996C40.8475 5.08 40.9035 5.18267 40.9035 5.304C40.9035 5.35067 40.8895 5.416 40.8615 5.5L38.7195 10.722C38.6448 10.9273 38.5002 11.03 38.2855 11.03C38.1642 11.03 38.0475 10.988 37.9355 10.904C37.8328 10.82 37.7815 10.7173 37.7815 10.596C37.7815 10.5027 37.7955 10.4373 37.8235 10.4L38.5095 9C38.3135 8.98133 38.1782 8.888 38.1035 8.72L36.7315 5.514C36.7128 5.43933 36.7035 5.38333 36.7035 5.346Z" fill="#282424"/>
<path d="M80.7971 12.4923C79.8788 12.4923 79.0741 12.3046 78.3829 11.9294C77.7016 11.5444 77.1734 11.0062 76.7982 10.315C76.423 9.62387 76.2354 8.80927 76.2354 7.87125C76.2354 6.93322 76.423 6.11862 76.7982 5.42745C77.1734 4.73627 77.7016 4.20308 78.3829 3.82787C79.0741 3.44279 79.8788 3.25024 80.7971 3.25024C81.745 3.25024 82.5547 3.43785 83.2261 3.81306C83.9074 4.18827 84.4307 4.72146 84.7961 5.41264C85.1713 6.10381 85.3589 6.92335 85.3589 7.87125C85.3589 8.80927 85.1713 9.62881 84.7961 10.3299C84.4307 11.021 83.9074 11.5542 83.2261 11.9294C82.5448 12.3046 81.7351 12.4923 80.7971 12.4923ZM80.7971 11.0408C81.7154 11.0408 82.4263 10.7643 82.9299 10.2114C83.4433 9.64856 83.7001 8.86852 83.7001 7.87125C83.7001 6.86411 83.4433 6.08407 82.9299 5.53112C82.4263 4.97818 81.7154 4.70171 80.7971 4.70171C79.8887 4.70171 79.1778 4.98312 78.6643 5.54594C78.1509 6.09888 77.8942 6.87398 77.8942 7.87125C77.8942 8.86852 78.1509 9.64856 78.6643 10.2114C79.1778 10.7643 79.8887 11.0408 80.7971 11.0408Z" fill="#201D1D"/>
<path d="M70.1773 12.507C68.9628 12.507 67.9014 12.2552 66.9929 11.7516C66.0944 11.2382 65.3983 10.5174 64.9046 9.58925C64.4109 8.6611 64.1641 7.57003 64.1641 6.31604C64.1641 5.06205 64.4109 3.97592 64.9046 3.05764C65.3983 2.12949 66.0944 1.41363 66.9929 0.910059C67.9014 0.396615 68.9628 0.139893 70.1773 0.139893C71.1054 0.139893 71.925 0.292939 72.6359 0.59903C73.3567 0.895249 73.9491 1.33464 74.4132 1.9172C74.8773 2.48989 75.1933 3.186 75.3611 4.00554H73.643C73.4653 3.24525 73.0753 2.65775 72.473 2.24304C71.8805 1.82834 71.1153 1.62098 70.1773 1.62098C68.8246 1.62098 67.7631 2.04063 66.9929 2.87991C66.2228 3.7192 65.8377 4.86457 65.8377 6.31604C65.8377 7.77739 66.2228 8.9277 66.9929 9.76699C67.7631 10.5964 68.8246 11.0111 70.1773 11.0111C71.1153 11.0111 71.8805 10.8087 72.473 10.4039C73.0753 9.98915 73.4653 9.40165 73.643 8.64136H75.3611C75.1933 9.45102 74.8773 10.1471 74.4132 10.7297C73.9491 11.3024 73.3567 11.7418 72.6359 12.0479C71.925 12.354 71.1054 12.507 70.1773 12.507Z" fill="#201D1D"/>
<path d="M100.092 12.4923C98.858 12.4923 97.8854 12.2355 97.1745 11.7221C96.4635 11.2086 96.0735 10.4928 96.0044 9.5745H97.6484C97.7175 10.1176 97.9545 10.5175 98.3593 10.7742C98.7642 11.0309 99.3615 11.1593 100.151 11.1593C101.534 11.1593 102.225 10.7248 102.225 9.85591C102.225 9.50045 102.116 9.22892 101.899 9.04131C101.692 8.84383 101.336 8.70066 100.833 8.61179L98.8925 8.25633C97.2436 7.95024 96.4191 7.16526 96.4191 5.9014C96.4191 5.08186 96.7301 4.43512 97.3522 3.96117C97.9742 3.48722 98.8234 3.25024 99.8997 3.25024C101.015 3.25024 101.899 3.49216 102.551 3.97598C103.212 4.4598 103.588 5.1411 103.676 6.01988H102.062C101.963 5.52619 101.731 5.16085 101.366 4.92388C101.01 4.6869 100.507 4.56842 99.8552 4.56842C99.2529 4.56842 98.7839 4.67209 98.4482 4.87944C98.1224 5.0868 97.9594 5.38795 97.9594 5.78291C97.9594 6.089 98.0631 6.33091 98.2705 6.50864C98.4877 6.6765 98.8333 6.80486 99.3072 6.89373L101.247 7.264C102.116 7.42198 102.753 7.70339 103.158 8.10822C103.563 8.51306 103.765 9.05612 103.765 9.73742C103.765 10.6063 103.449 11.2827 102.817 11.7665C102.185 12.2503 101.277 12.4923 100.092 12.4923Z" fill="#201D1D"/>
<path d="M109.221 12.4923C108.293 12.4923 107.488 12.3046 106.807 11.9294C106.126 11.5444 105.598 11.0013 105.222 10.3002C104.857 9.59919 104.674 8.77965 104.674 7.84163C104.674 6.9036 104.857 6.09394 105.222 5.41264C105.598 4.72146 106.121 4.18827 106.792 3.81306C107.464 3.43785 108.249 3.25024 109.147 3.25024C110.006 3.25024 110.747 3.42304 111.369 3.76863C112.001 4.11421 112.49 4.60297 112.835 5.23491C113.181 5.86684 113.354 6.61726 113.354 7.48616V8.15266H106.274C106.323 9.08081 106.605 9.80654 107.118 10.3299C107.641 10.8433 108.338 11.1 109.206 11.1C109.809 11.1 110.317 10.9766 110.732 10.7298C111.147 10.473 111.433 10.0978 111.591 9.60412H113.279C113.062 10.5224 112.593 11.2333 111.872 11.7369C111.161 12.2405 110.278 12.4923 109.221 12.4923ZM106.333 6.93816H111.754C111.675 6.20749 111.403 5.63974 110.939 5.23491C110.485 4.83007 109.883 4.62766 109.132 4.62766C108.392 4.62766 107.775 4.83007 107.281 5.23491C106.787 5.63974 106.471 6.20749 106.333 6.93816Z" fill="#201D1D"/>
<path d="M126.992 12.3146C126.518 12.3146 126.148 12.1961 125.881 11.9591C125.625 11.7123 125.496 11.3469 125.496 10.8631V4.70177H123.837V3.42803H125.511V1.1189H127.14V3.42803H129.466V4.70177H127.155V11.0112H129.703V12.3146H126.992Z" fill="#201D1D"/>
<path d="M142.043 12.3153V4.89819H144.142V12.3153H142.043Z" fill="#201D1D"/>
<path d="M141.903 3.21881V1.11963H144.142V3.21881H141.903Z" fill="#201D1D"/>
<path d="M148.424 12.3146C147.878 12.3146 147.452 12.1758 147.147 11.8983C146.851 11.6207 146.703 11.1997 146.703 10.6354L146.703 4.96787H145.232V3.35803H146.717L146.736 1.1189L148.743 1.1189L148.743 3.35803H151V4.96787H148.771L148.771 10.6909H150.95V12.3146H148.424Z" fill="#201D1D"/>
<path d="M87.6323 4.67725H88.2476C88.5583 4.17612 88.9847 3.79526 89.5259 3.53467C90.067 3.26417 90.7036 3.12842 91.4351 3.12842C92.5976 3.12847 93.5146 3.46476 94.186 4.13623C94.8575 4.79773 95.1929 5.68489 95.1929 6.79736V12.3149H93.5093V7.08252C93.5092 6.27094 93.2889 5.6548 92.8481 5.23389C92.4172 4.81298 91.7807 4.60211 90.939 4.60205C90.1071 4.60205 89.4698 4.81293 89.0288 5.23389C88.5881 5.6548 88.3677 6.27104 88.3677 7.08252V12.3149H86.6841V5.06982H85.5015V2.93896H87.6323V4.67725Z" fill="#201D1D"/>
<path d="M116.014 4.79077H116.479C116.786 4.29714 117.205 3.92151 117.738 3.66479C118.271 3.3982 118.899 3.26538 119.62 3.26538C120.765 3.26547 121.669 3.59611 122.33 4.25757C122.992 4.90917 123.322 5.78285 123.322 6.87866V12.3142H121.663V7.16089C121.663 6.3611 121.446 5.75333 121.012 5.33862C120.587 4.92398 119.96 4.71655 119.131 4.71655C118.311 4.71656 117.684 4.92397 117.25 5.33862C116.816 5.75333 116.599 6.3611 116.599 7.16089V12.3142H114.939V5.17749H113.774V2.93823H116.014V4.79077Z" fill="#201D1D"/>
<path d="M52.5847 12.2382C52.4815 12.3407 52.3143 12.3407 52.2111 12.2382L49.1829 9.2291C47.6057 7.66174 47.6057 5.12056 49.1829 3.55321C49.2563 3.48031 49.3752 3.48031 49.4486 3.55321L55.1998 9.26828C55.303 9.3708 55.303 9.53701 55.1998 9.63953L52.5847 12.2382Z" fill="#201D1D"/>
<path d="M52.9515 6.06971C52.8793 5.99559 52.8802 5.87628 52.9534 5.80323L58.6955 0.0762576C58.7985 -0.0264717 58.9643 -0.0252543 59.0658 0.0789766L61.6392 2.72115C61.7407 2.82538 61.7395 2.99316 61.6365 3.09589L58.6131 6.11128C57.0384 7.68189 54.5036 7.66328 52.9515 6.06971Z" fill="#201D1D"/>
<path d="M136.359 1.07349C137.035 1.07349 137.618 1.19337 138.108 1.43384C138.608 1.66514 139.001 1.999 139.288 2.43384C139.575 2.85927 139.719 3.35855 139.719 3.93188C139.719 4.51467 139.481 5.07167 139.245 5.45728C138.839 6.12207 138.343 6.26187 138.353 6.26392L138.823 6.31958C139.24 6.4121 139.619 6.58346 139.961 6.83325C140.313 7.08305 140.59 7.39728 140.794 7.77661C141.007 8.15583 141.113 8.6044 141.113 9.12231C141.113 9.76065 140.956 10.3209 140.642 10.802C140.336 11.2739 139.906 11.644 139.351 11.9124C138.805 12.1806 138.171 12.3147 137.449 12.3147H131.523V2.93872H133.646V5.63892H136.068C136.559 5.63892 136.933 5.52353 137.192 5.29224C137.461 5.05173 137.595 4.71426 137.595 4.27954C137.595 3.82619 137.461 3.4835 137.192 3.2522C136.933 3.02098 136.559 2.90552 136.068 2.90552H133.646V1.07349H136.359ZM133.646 10.4827H137.061C137.68 10.4827 138.157 10.3486 138.49 10.0803C138.823 9.8028 138.99 9.40497 138.99 8.88696C138.99 8.37811 138.823 7.99367 138.49 7.73462C138.157 7.46636 137.685 7.33228 137.074 7.33228H133.646V10.4827Z" fill="#201D1D"/>
</svg>
