<svg width="206" height="31" viewBox="0 0 206 31" fill="none" xmlns="http://www.w3.org/2000/svg">
<path d="M206 1.5C206 2.32843 205.243 2.97177 204.637 3.53657C204.245 3.90168 204 4.42223 204 5C204 5.57777 204.245 6.09832 204.637 6.46343C205.243 7.02823 206 7.67157 206 8.5C206 9.32843 205.243 9.97177 204.637 10.5366C204.245 10.9017 204 11.4222 204 12C204 12.5778 204.245 13.0983 204.637 13.4634C205.243 14.0282 206 14.6716 206 15.5C206 16.3284 205.243 16.9718 204.637 17.5366C204.245 17.9017 204 18.4222 204 19C204 19.5778 204.245 20.0983 204.637 20.4634C205.243 21.0282 206 21.6716 206 22.5C206 23.3284 205.243 23.9718 204.637 24.5366C204.245 24.9017 204 25.4222 204 26C204 26.5778 204.245 27.0983 204.637 27.4634C205.243 28.0282 206 28.6716 206 29.5C206 30.3284 205.328 31 204.5 31H1.5C0.671571 31 0 30.3284 0 29.5C0 28.6716 0.757188 28.0282 1.36323 27.4634C1.755 27.0983 2 26.5778 2 26C2 25.4222 1.755 24.9017 1.36323 24.5366C0.757188 23.9718 0 23.3284 0 22.5C0 21.6716 0.757188 21.0282 1.36323 20.4634C1.755 20.0983 2 19.5778 2 19C2 18.4222 1.755 17.9017 1.36323 17.5366C0.757188 16.9718 0 16.3284 0 15.5C0 14.6716 0.757188 14.0282 1.36323 13.4634C1.755 13.0983 2 12.5778 2 12C2 11.4222 1.755 10.9017 1.36323 10.5366C0.757188 9.97177 0 9.32843 0 8.5C0 7.67157 0.757188 7.02823 1.36323 6.46343C1.755 6.09832 2 5.57777 2 5C2 4.42223 1.755 3.90168 1.36323 3.53657C0.757188 2.97177 0 2.32843 0 1.5C0 0.671573 0.671573 0 1.5 0H204.5C205.328 0 206 0.671573 206 1.5Z" fill="#262E84"/>
</svg>
