<svg width="20" height="20" viewBox="0 0 20 20" fill="none" xmlns="http://www.w3.org/2000/svg">
<path d="M14 14L19 19" stroke="#8C79FF" stroke-width="1.5" stroke-linecap="round" stroke-linejoin="round"/>
<path d="M10 1V18C10 18.2652 9.89464 18.5196 9.70711 18.7071C9.51957 18.8946 9.26522 19 9 19H3C2.46957 19 1.96086 18.7893 1.58579 18.4142C1.21071 18.0391 1 17.5304 1 17V3C1 2.46957 1.21071 1.96086 1.58579 1.58579C1.96086 1.21071 2.46957 1 3 1H17C17.5304 1 18.0391 1.21071 18.4142 1.58579C18.7893 1.96086 19 2.46957 19 3V9C19 9.26522 18.8946 9.51957 18.7071 9.70711C18.5196 9.89464 18.2652 10 18 10H1" stroke="#8C79FF" stroke-width="1.5" stroke-linecap="round" stroke-linejoin="round"/>
<path d="M14 19L19 14" stroke="#8C79FF" stroke-width="1.5" stroke-linecap="round" stroke-linejoin="round"/>
</svg>
