<svg width="13" height="13" viewBox="0 0 13 13" fill="none" xmlns="http://www.w3.org/2000/svg">
<path d="M8.66665 6.98751V9.26251C8.66665 11.1583 7.90831 11.9167 6.01248 11.9167H3.73748C1.84165 11.9167 1.08331 11.1583 1.08331 9.26251V6.98751C1.08331 5.09168 1.84165 4.33334 3.73748 4.33334H6.01248C7.90831 4.33334 8.66665 5.09168 8.66665 6.98751Z" stroke="white" stroke-width="0.8" stroke-linecap="round" stroke-linejoin="round"/>
<path d="M11.9166 3.73751V6.01251C11.9166 7.90834 11.1583 8.66668 9.26248 8.66668H8.66665V6.98751C8.66665 5.09168 7.90831 4.33334 6.01248 4.33334H4.33331V3.73751C4.33331 1.84168 5.09165 1.08334 6.98748 1.08334H9.26248C11.1583 1.08334 11.9166 1.84168 11.9166 3.73751Z" stroke="white" stroke-width="0.8" stroke-linecap="round" stroke-linejoin="round"/>
</svg>
