<svg width="385" height="385" viewBox="0 0 385 385" fill="none" xmlns="http://www.w3.org/2000/svg">
<path d="M54.675 9.47499C42.175 -3.02501 21.875 -3.02501 9.375 9.47499C-3.125 21.975 -3.125 42.275 9.375 54.775L146.775 192.075L9.47499 329.475C-3.02501 341.975 -3.02501 362.275 9.47499 374.775C21.975 387.275 42.275 387.275 54.775 374.775L192.075 237.375L329.475 374.675C341.975 387.175 362.275 387.175 374.775 374.675C387.275 362.175 387.275 341.875 374.775 329.375L237.375 192.075L374.675 54.675C387.175 42.175 387.175 21.875 374.675 9.375C362.175 -3.125 341.875 -3.125 329.375 9.375L192.075 146.775L54.675 9.47499Z" fill="black"/>
</svg>
