<svg width="42" height="42" viewBox="0 0 42 42" fill="none" xmlns="http://www.w3.org/2000/svg">
<circle opacity="0.2" cx="29.5" cy="27.5" r="1.5" fill="#8C79FF"/>
<circle opacity="0.2" cx="10" cy="13" r="1" fill="#8C79FF"/>
<circle opacity="0.2" cx="30.5" cy="11.5" r="1" stroke="#8C79FF"/>
<circle opacity="0.2" cx="12" cy="30" r="1.5" stroke="#8C79FF"/>
<circle cx="21" cy="21" r="20.5" stroke="#8C79FF"/>
<path d="M20.6476 25.3226H22.211V27H20.6476V25.3226ZM18 18.8629C18 17.7016 18.3195 16.7688 18.9585 16.0645C19.5975 15.3548 20.4747 15 21.5903 15C22.6221 15 23.4471 15.3038 24.0651 15.9113C24.6884 16.5134 25 17.2849 25 18.2258C25 18.7957 24.8848 19.2581 24.6543 19.6129C24.4291 19.9677 23.9708 20.4892 23.2795 21.1774C22.7767 21.6774 22.4493 22.1022 22.2974 22.4516C22.1508 22.7957 22.0774 23.3065 22.0774 23.9839H20.679C20.679 23.2151 20.7681 22.5968 20.9461 22.129C21.1242 21.6559 21.5144 21.1156 22.1167 20.5081L22.7452 19.871C22.9338 19.6882 23.0857 19.4973 23.2009 19.2984C23.4104 18.9489 23.5152 18.586 23.5152 18.2097C23.5152 17.6828 23.3606 17.2258 23.0516 16.8387C22.7478 16.4516 22.2424 16.2581 21.5354 16.2581C20.6607 16.2581 20.0557 16.5914 19.7205 17.2581C19.532 17.629 19.4246 18.164 19.3984 18.8629H18Z" fill="#8C79FF"/>
</svg>
