<svg width="7" height="7" viewBox="0 0 7 7" fill="none" xmlns="http://www.w3.org/2000/svg">
<g clip-path="url(#clip0_84_590)">
<path d="M4.375 5.83333H1.45833C1.0717 5.83287 0.701038 5.67908 0.427647 5.40569C0.154257 5.1323 0.000463125 4.76163 0 4.375L0 1.45833C0.000463125 1.0717 0.154257 0.701038 0.427647 0.427647C0.701038 0.154257 1.0717 0.000463125 1.45833 0L4.375 0C4.76163 0.000463125 5.1323 0.154257 5.40569 0.427647C5.67908 0.701038 5.83287 1.0717 5.83333 1.45833V4.375C5.83287 4.76163 5.67908 5.1323 5.40569 5.40569C5.1323 5.67908 4.76163 5.83287 4.375 5.83333V5.83333ZM1.45833 0.583333C1.22627 0.583333 1.00371 0.675521 0.839615 0.839615C0.675521 1.00371 0.583333 1.22627 0.583333 1.45833V4.375C0.583333 4.60706 0.675521 4.82962 0.839615 4.99372C1.00371 5.15781 1.22627 5.25 1.45833 5.25H4.375C4.60706 5.25 4.82962 5.15781 4.99372 4.99372C5.15781 4.82962 5.25 4.60706 5.25 4.375V1.45833C5.25 1.22627 5.15781 1.00371 4.99372 0.839615C4.82962 0.675521 4.60706 0.583333 4.375 0.583333H1.45833ZM7 5.54167V1.75C7 1.67265 6.96927 1.59846 6.91457 1.54376C6.85987 1.48906 6.78569 1.45833 6.70833 1.45833C6.63098 1.45833 6.55679 1.48906 6.50209 1.54376C6.4474 1.59846 6.41667 1.67265 6.41667 1.75V5.54167C6.41667 5.77373 6.32448 5.99629 6.16039 6.16039C5.99629 6.32448 5.77373 6.41667 5.54167 6.41667H1.75C1.67265 6.41667 1.59846 6.4474 1.54376 6.50209C1.48906 6.55679 1.45833 6.63098 1.45833 6.70833C1.45833 6.78569 1.48906 6.85987 1.54376 6.91457C1.59846 6.96927 1.67265 7 1.75 7H5.54167C5.9283 6.99954 6.29896 6.84574 6.57235 6.57235C6.84574 6.29896 6.99954 5.9283 7 5.54167V5.54167Z" fill="white"/>
</g>
<defs>
<clipPath id="clip0_84_590">
<rect width="7" height="7" fill="white"/>
</clipPath>
</defs>
</svg>
