<svg width="18" height="18" viewBox="0 0 18 18" fill="none" xmlns="http://www.w3.org/2000/svg">
<g clip-path="url(#clip0_1_1570)">
<path d="M9 11.2501C8.80109 11.2501 8.61032 11.1711 8.46967 11.0304C8.32902 10.8898 8.25 10.699 8.25 10.5001V4.50009C8.25 4.30117 8.32902 4.11041 8.46967 3.96976C8.61032 3.8291 8.80109 3.75009 9 3.75009C9.19892 3.75009 9.38968 3.8291 9.53033 3.96976C9.67099 4.11041 9.75 4.30117 9.75 4.50009V10.5001C9.75 10.699 9.67099 10.8898 9.53033 11.0304C9.38968 11.1711 9.19892 11.2501 9 11.2501ZM9.59475 17.8201C11.2148 17.1691 16.5 14.6093 16.5 9.03234V5.15409C16.5008 4.36585 16.2529 3.59744 15.7916 2.95832C15.3302 2.31921 14.6789 1.84197 13.9305 1.59459L9.23625 0.0383369C9.083 -0.0133893 8.91701 -0.0133893 8.76375 0.0383369L4.0695 1.59459C3.32109 1.84197 2.66981 2.31921 2.20845 2.95832C1.74709 3.59744 1.49917 4.36585 1.5 5.15409V9.03234C1.5 13.9538 6.75375 16.9643 8.36475 17.7698C8.56851 17.8671 8.78127 17.9442 9 18.0001C9.20337 17.9585 9.40246 17.8982 9.59475 17.8201ZM13.458 3.01809C13.9069 3.1669 14.2975 3.45337 14.5743 3.83681C14.8511 4.22025 15.0001 4.68117 15 5.15409V9.03234C15 13.6696 10.4348 15.8656 9.03525 16.4281C7.61925 15.7201 3 13.0943 3 9.03234V5.15409C2.99994 4.68117 3.14889 4.22025 3.4257 3.83681C3.70251 3.45337 4.09311 3.1669 4.542 3.01809L9 1.54059L13.458 3.01809ZM9 12.7501C8.85167 12.7501 8.70666 12.7941 8.58332 12.8765C8.45999 12.9589 8.36386 13.076 8.30709 13.2131C8.25033 13.3501 8.23547 13.5009 8.26441 13.6464C8.29335 13.7919 8.36478 13.9255 8.46967 14.0304C8.57456 14.1353 8.7082 14.2067 8.85368 14.2357C8.99917 14.2646 9.14997 14.2498 9.28702 14.193C9.42406 14.1362 9.54119 14.0401 9.6236 13.9168C9.70602 13.7934 9.75 13.6484 9.75 13.5001C9.75 13.3012 9.67099 13.1104 9.53033 12.9698C9.38968 12.8291 9.19892 12.7501 9 12.7501Z" fill="#8C79FF"/>
</g>
<defs>
<clipPath id="clip0_1_1570">
<rect width="18" height="18" fill="white"/>
</clipPath>
</defs>
</svg>
